<svg version="1.1" viewBox="0.0 0.0 227.36745406824147 230.41994750656167" fill="none" stroke="none" stroke-linecap="square" stroke-miterlimit="10" xmlns:xlink="http://www.w3.org/1999/xlink" xmlns="http://www.w3.org/2000/svg"><clipPath id="p.0"><path d="m0 0l227.36745 0l0 230.41995l-227.36745 0l0 -230.41995z" clip-rule="nonzero"/></clipPath><g clip-path="url(#p.0)"><path fill="#000000" fill-opacity="0.0" d="m0 0l227.36745 0l0 230.41995l-227.36745 0z" fill-rule="evenodd"/><path fill="#000000" fill-opacity="0.0" d="m44.24803 111.35433l0 0c0 -41.860573 33.617424 -75.79527 75.08662 -75.79527l0 0c19.914207 0 39.01278 7.98555 53.094246 22.19992c14.081482 14.214375 21.99237 33.4932 21.99237 53.595356l0 0c0 41.860573 -33.61743 75.79528 -75.08662 75.79528l0 0c-41.469193 0 -75.08662 -33.934708 -75.08662 -75.79528z" fill-rule="evenodd"/><path stroke="#0000ff" stroke-width="24.0" stroke-linejoin="round" stroke-linecap="butt" d="m44.24803 111.35433l0 0c0 -41.860573 33.617424 -75.79527 75.08662 -75.79527l0 0c19.914207 0 39.01278 7.98555 53.094246 22.19992c14.081482 14.214375 21.99237 33.4932 21.99237 53.595356l0 0c0 41.860573 -33.61743 75.79528 -75.08662 75.79528l0 0c-41.469193 0 -75.08662 -33.934708 -75.08662 -75.79528z" fill-rule="evenodd"/><path fill="#ff00ff" d="m135.79741 187.06479l8.0 -42.740158l29.228348 49.70079z" fill-rule="evenodd"/><path stroke="#ff00ff" stroke-width="12.0" stroke-linejoin="round" stroke-linecap="butt" d="m135.79741 187.06479l8.0 -42.740158l29.228348 49.70079z" fill-rule="evenodd"/><path fill="#00ffff" d="m35.10589 96.32033l40.503937 15.842514l-54.29921 19.433075z" fill-rule="evenodd"/><path stroke="#00ffff" stroke-width="12.0" stroke-linejoin="round" stroke-linecap="butt" d="m35.10589 96.32033l40.503937 15.842514l-54.29921 19.433075z" fill-rule="evenodd"/><path fill="#00ff00" d="m177.36476 57.708458l-42.173233 10.67717l32.881897 -47.401577z" fill-rule="evenodd"/><path stroke="#00ff00" stroke-width="12.0" stroke-linejoin="round" stroke-linecap="butt" d="m177.36476 57.708458l-42.173233 10.67717l32.881897 -47.401577z" fill-rule="evenodd"/><path fill="#000000" fill-opacity="0.0" d="m88.5105 68.385826l54.29921 0l0 82.42519l-54.29921 0z" fill-rule="evenodd"/><path fill="#9900ff" d="m116.573 117.712074l-6.46875 0q-0.03125 -1.40625 -0.03125 -1.703125q0 -3.15625 1.046875 -5.1875q1.046875 -2.03125 4.15625 -4.5625q3.125 -2.546875 3.734375 -3.328125q0.953125 -1.25 0.953125 -2.75q0 -2.078125 -1.671875 -3.5625q-1.65625 -1.484375 -4.484375 -1.484375q-2.71875 0 -4.546875 1.546875q-1.828125 1.546875 -2.5 4.71875l-6.5625 -0.8125q0.28125 -4.53125 3.875 -7.703125q3.59375 -3.1875 9.4375 -3.1875q6.140625 0 9.765625 3.21875q3.640625 3.203125 3.640625 7.46875q0 2.375 -1.34375 4.484375q-1.328125 2.09375 -5.6875 5.734375q-2.265625 1.875 -2.8125 3.015625q-0.546875 1.140625 -0.5 4.09375zm-6.46875 9.59375l0 -7.140625l7.140625 0l0 7.140625l-7.140625 0z" fill-rule="nonzero"/></g></svg>