<svg width="569" height="459" viewBox="0 0 569 459" fill="none" xmlns="http://www.w3.org/2000/svg">
<path d="M277.5 184.324C287.5 181.924 289 174.658 288.5 171.324C288.5 168.859 269 180.824 268 194.324C267 207.824 283.5 218.324 294.5 248.324C303.3 272.324 278.5 299.991 265 310.824C314.5 273.824 305.343 258.77 303.5 248.324C302 239.824 286.333 217.824 277.5 209.324C273.333 201.991 267.5 186.724 277.5 184.324Z" fill="#E73C70" stroke="#E73C70"/>
<path d="M293.086 319.49L286.334 319.49C277.771 319.526 263.73 320.768 255.18 316.619C228.801 303.819 217.792 272.059 230.592 245.68C243.392 219.301 275.153 208.292 301.532 221.092C320.924 230.502 332.623 250.158 332.05 270.39" stroke="#81BEE0" stroke-width="7"/>
<path d="M331 287C333 283.222 334.5 275.562 335 272.204V270H329V272.204L331 287Z" fill="#81BEE0" stroke="#81BEE0"/>
<path d="M310 319L292 325.928L292 312.072L310 319Z" fill="#81BEE0"/>
</svg>
