<svg version="1.1" viewBox="0.0 0.0 232.49606299212599 227.2257217847769" fill="none" stroke="none" stroke-linecap="square" stroke-miterlimit="10" xmlns:xlink="http://www.w3.org/1999/xlink" xmlns="http://www.w3.org/2000/svg"><clipPath id="p.0"><path d="m0 0l232.49606 0l0 227.22572l-232.49606 0l0 -227.22572z" clip-rule="nonzero"/></clipPath><g clip-path="url(#p.0)"><path fill="#000000" fill-opacity="0.0" d="m0 0l232.49606 0l0 227.22572l-232.49606 0z" fill-rule="evenodd"/><path fill="#000000" fill-opacity="0.0" d="m44.274277 111.86483l0 0c0 -41.860573 33.617424 -75.79527 75.08662 -75.79527l0 0c19.914207 0 39.01278 7.98555 53.094246 22.199924c14.081482 14.214371 21.99237 33.493195 21.99237 53.595352l0 0c0 41.860573 -33.61743 75.79528 -75.08662 75.79528l0 0c-41.469193 0 -75.08662 -33.934708 -75.08662 -75.79528z" fill-rule="evenodd"/><path stroke="#0000ff" stroke-width="24.0" stroke-linejoin="round" stroke-linecap="butt" d="m44.274277 111.86483l0 0c0 -41.860573 33.617424 -75.79527 75.08662 -75.79527l0 0c19.914207 0 39.01278 7.98555 53.094246 22.199924c14.081482 14.214371 21.99237 33.493195 21.99237 53.595352l0 0c0 41.860573 -33.61743 75.79528 -75.08662 75.79528l0 0c-41.469193 0 -75.08662 -33.934708 -75.08662 -75.79528z" fill-rule="evenodd"/><path fill="#ff00ff" d="m135.82365 187.57529l8.0 -42.740158l29.228348 49.70079z" fill-rule="evenodd"/><path stroke="#ff00ff" stroke-width="12.0" stroke-linejoin="round" stroke-linecap="butt" d="m135.82365 187.57529l8.0 -42.740158l29.228348 49.70079z" fill-rule="evenodd"/><path fill="#00ffff" d="m35.132137 96.830826l40.503933 15.842514l-54.29921 19.433075z" fill-rule="evenodd"/><path stroke="#00ffff" stroke-width="12.0" stroke-linejoin="round" stroke-linecap="butt" d="m35.132137 96.830826l40.503933 15.842514l-54.29921 19.433075z" fill-rule="evenodd"/><path fill="#00ff00" d="m177.391 58.21896l-42.173233 10.677166l32.881897 -47.401577z" fill-rule="evenodd"/><path stroke="#00ff00" stroke-width="12.0" stroke-linejoin="round" stroke-linecap="butt" d="m177.391 58.21896l-42.173233 10.677166l32.881897 -47.401577z" fill-rule="evenodd"/><path fill="#9900ff" d="m103.13515 76.455475l19.606415 17.595184l-5.607361 3.844078l22.812943 13.734421l-5.489685 4.3707886l29.958374 24.835304l-44.57058 -14.205154l6.8061447 -4.874489l-27.791878 -9.268112l7.761345 -6.515526l-29.321236 -9.685478z" fill-rule="evenodd"/><path stroke="#000000" stroke-width="1.0" stroke-linejoin="round" stroke-linecap="butt" d="m103.13515 76.455475l19.606415 17.595184l-5.607361 3.844078l22.812943 13.734421l-5.489685 4.3707886l29.958374 24.835304l-44.57058 -14.205154l6.8061447 -4.874489l-27.791878 -9.268112l7.761345 -6.515526l-29.321236 -9.685478z" fill-rule="evenodd"/></g></svg>